<?xml version="1.0" encoding="UTF-8"?>
<svg id="layer_1" data-name="layer 1" xmlns="http://www.w3.org/2000/svg" viewBox="0 0 56.01 48.46">
  <path d="M38.2,5.79c-.4,0-.91-.27-1.13-.59l-3.22-4.61c-.23-.32-.74-.59-1.13-.59h-9.13c-.4,0-.91.27-1.13.59l-3.22,4.61c-.23.32-.74.59-1.13.59h-7.67c-.4,0-.72.32-.72.72v21.23c0,.4.32.72.72.72h35.18c.4,0,.72-.32.72-.72V6.51c0-.4-.32-.72-.72-.72h-7.4Z" style="fill: #c5c5c5; stroke-width: 0px;"/>
  <circle cx="28.01" cy="17.04" r="8.06" style="fill: #fff; stroke-width: 0px;"/>
  <circle cx="28.01" cy="17.04" r="5.17" style="fill: #c5c5c5; stroke-width: 0px;"/>
  <text transform="translate(0 44.39)" style="fill: #c5c5c5; font-family: Arial, Helvetica, sans-serif; font-size: 12px;"><tspan x="0" y="0">NO IMAGE</tspan></text>
</svg>
